<svg width="120" height="121" viewBox="0 0 120 121" fill="none" xmlns="http://www.w3.org/2000/svg">
<path fill-rule="evenodd" clip-rule="evenodd" d="M59.3147 5.79284L56.7775 2.43284H56.7604L56.7261 2.46712L56.6233 2.55284C56.0127 3.01651 55.4125 3.49377 54.8233 3.98427C47.5908 10.0225 40.9468 16.7325 34.9804 24.0243C24.2233 37.25 12.9775 56.1071 12.9775 77.4843C12.9775 91.67 18.909 102.427 27.8318 109.524C36.6433 116.544 48.1461 119.861 59.3147 119.861C70.4918 119.861 81.9947 116.544 90.8061 109.524C99.7204 102.419 105.66 91.67 105.66 77.4843C105.66 56.1071 94.4147 37.25 83.6575 24.0243C77.6915 16.7295 71.0475 10.0166 63.8147 3.9757L62.0147 2.5357L61.9118 2.44998L61.8775 2.43284H61.8604C61.1296 1.87739 60.2369 1.57666 59.319 1.57666C58.401 1.57666 57.5084 1.87739 56.7775 2.43284L57.0947 2.85284L59.3147 5.79284ZM50.6233 47.4243C50.6233 45.59 52.1061 44.1071 53.9404 44.1071H64.7061C66.5404 44.1071 68.0233 45.59 68.0233 47.4243V60.5986H81.1975C83.0318 60.5986 84.5147 62.09 84.5147 63.9157V74.69C84.5124 75.5683 84.1619 76.4098 83.5401 77.03C82.9183 77.6502 82.0758 77.9986 81.1975 77.9985H68.0233V91.1814C68.0233 92.0612 67.6738 92.9049 67.0517 93.527C66.4296 94.1491 65.5859 94.4985 64.7061 94.4985H53.9318C53.0535 94.4963 52.212 94.1458 51.5918 93.5239C50.9716 92.9021 50.6232 92.0597 50.6233 91.1814V77.9985H37.4404C36.5636 77.9963 35.7234 77.647 35.1034 77.027C34.4834 76.407 34.1341 75.5668 34.1318 74.69V63.9157C34.1318 62.09 35.6147 60.5986 37.4404 60.5986H50.6233V47.4243Z" fill="#ED642B"/>
</svg>
