<svg width="35" height="35" viewBox="0 0 35 35" fill="none" xmlns="http://www.w3.org/2000/svg">
<g filter="url(#filter0_i_104_205)">
<g clip-path="url(#clip0_104_205)">
<rect width="35" height="35" rx="17.5" fill="white" fill-opacity="0.01"/>
<path d="M23.1875 11.75C23.5521 11.75 23.862 11.8776 24.1172 12.1328C24.3724 12.388 24.5 12.6979 24.5 13.0625V20.9375C24.5 21.3021 24.3724 21.612 24.1172 21.8672C23.862 22.1224 23.5521 22.25 23.1875 22.25H11.8125C11.4479 22.25 11.138 22.1224 10.8828 21.8672C10.6276 21.612 10.5 21.3021 10.5 20.9375V13.0625C10.5 12.6979 10.6276 12.388 10.8828 12.1328C11.138 11.8776 11.4479 11.75 11.8125 11.75H23.1875ZM23.1875 13.0625H11.8125V14.1836C12.4505 14.694 13.681 15.6602 15.5039 17.082C15.5039 17.1003 15.6315 17.2142 15.8867 17.4238C16.1419 17.6335 16.3333 17.7793 16.4609 17.8613C16.5885 17.9434 16.7572 18.0391 16.9668 18.1484C17.1764 18.2578 17.3542 18.3125 17.5 18.3125C17.6458 18.3125 17.8236 18.2578 18.0332 18.1484C18.2428 18.0391 18.4115 17.9434 18.5391 17.8613C18.6667 17.7793 18.8581 17.6335 19.1133 17.4238C19.3685 17.2142 19.4961 17.1003 19.4961 17.082C21.319 15.6602 22.5495 14.694 23.1875 14.1836V13.0625ZM11.8125 20.9375H23.1875V15.8516C22.5495 16.362 21.5924 17.1185 20.3164 18.1211C20.2799 18.1393 20.1478 18.2487 19.9199 18.4492C19.6921 18.6497 19.5143 18.7956 19.3867 18.8867C19.2591 18.9779 19.0768 19.0918 18.8398 19.2285C18.6029 19.3652 18.375 19.4655 18.1562 19.5293C17.9375 19.5931 17.7188 19.625 17.5 19.625C17.2812 19.625 17.0579 19.5931 16.8301 19.5293C16.6022 19.4655 16.3743 19.3607 16.1465 19.2148C15.9186 19.069 15.7409 18.9505 15.6133 18.8594C15.4857 18.7682 15.3079 18.627 15.0801 18.4355C14.8522 18.2441 14.7201 18.1393 14.6836 18.1211C13.4076 17.1185 12.4505 16.362 11.8125 15.8516V20.9375Z" fill="#ED642B"/>
</g>
</g>
<defs>
<filter id="filter0_i_104_205" x="0" y="0" width="35" height="35" filterUnits="userSpaceOnUse" color-interpolation-filters="sRGB">
<feFlood flood-opacity="0" result="BackgroundImageFix"/>
<feBlend mode="normal" in="SourceGraphic" in2="BackgroundImageFix" result="shape"/>
<feColorMatrix in="SourceAlpha" type="matrix" values="0 0 0 0 0 0 0 0 0 0 0 0 0 0 0 0 0 0 127 0" result="hardAlpha"/>
<feMorphology radius="2" operator="erode" in="SourceAlpha" result="effect1_innerShadow_104_205"/>
<feOffset/>
<feComposite in2="hardAlpha" operator="arithmetic" k2="-1" k3="1"/>
<feColorMatrix type="matrix" values="0 0 0 0 0.886275 0 0 0 0 0.886275 0 0 0 0 0.886275 0 0 0 1 0"/>
<feBlend mode="normal" in2="shape" result="effect1_innerShadow_104_205"/>
</filter>
<clipPath id="clip0_104_205">
<rect width="35" height="35" rx="17.5" fill="white"/>
</clipPath>
</defs>
</svg>
