<svg width="35" height="35" viewBox="0 0 35 35" fill="none" xmlns="http://www.w3.org/2000/svg">
<g filter="url(#filter0_i_104_195)">
<rect width="35" height="35" rx="17.5" fill="white" fill-opacity="0.01"/>
<path d="M24.9625 17.75C24.9625 21.1406 22.4742 23.957 19.2203 24.4492V19.7188H20.8063L21.107 17.75H19.2203V16.4922C19.2203 15.9453 19.4938 15.4258 20.3414 15.4258H21.1891V13.7578C21.1891 13.7578 20.4234 13.6211 19.6578 13.6211C18.1266 13.6211 17.1148 14.5781 17.1148 16.2734V17.75H15.3922V19.7188H17.1148V24.4492C13.8609 23.957 11.4 21.1406 11.4 17.75C11.4 14.0039 14.4352 10.9688 18.1813 10.9688C21.9273 10.9688 24.9625 14.0039 24.9625 17.75Z" fill="#ED642B"/>
</g>
<defs>
<filter id="filter0_i_104_195" x="0" y="0" width="35" height="35" filterUnits="userSpaceOnUse" color-interpolation-filters="sRGB">
<feFlood flood-opacity="0" result="BackgroundImageFix"/>
<feBlend mode="normal" in="SourceGraphic" in2="BackgroundImageFix" result="shape"/>
<feColorMatrix in="SourceAlpha" type="matrix" values="0 0 0 0 0 0 0 0 0 0 0 0 0 0 0 0 0 0 127 0" result="hardAlpha"/>
<feMorphology radius="2" operator="erode" in="SourceAlpha" result="effect1_innerShadow_104_195"/>
<feOffset/>
<feComposite in2="hardAlpha" operator="arithmetic" k2="-1" k3="1"/>
<feColorMatrix type="matrix" values="0 0 0 0 0.886275 0 0 0 0 0.886275 0 0 0 0 0.886275 0 0 0 1 0"/>
<feBlend mode="normal" in2="shape" result="effect1_innerShadow_104_195"/>
</filter>
</defs>
</svg>
