<svg width="35" height="35" viewBox="0 0 35 35" fill="none" xmlns="http://www.w3.org/2000/svg">
<g filter="url(#filter0_i_104_198)">
<rect width="35" height="35" rx="17.5" fill="white" fill-opacity="0.01"/>
<path d="M17.9129 13.766C19.8079 13.766 21.3719 15.3301 21.3719 17.225C21.3719 19.15 19.8079 20.684 17.9129 20.684C15.9879 20.684 14.454 19.15 14.454 17.225C14.454 15.3301 15.9879 13.766 17.9129 13.766ZM17.9129 19.4809C19.1461 19.4809 20.1387 18.4883 20.1387 17.225C20.1387 15.9918 19.1461 14.9992 17.9129 14.9992C16.6497 14.9992 15.6571 15.9918 15.6571 17.225C15.6571 18.4883 16.6797 19.4809 17.9129 19.4809ZM22.3043 13.6457C22.3043 14.0969 21.9434 14.4578 21.4922 14.4578C21.0411 14.4578 20.6801 14.0969 20.6801 13.6457C20.6801 13.1945 21.0411 12.8336 21.4922 12.8336C21.9434 12.8336 22.3043 13.1945 22.3043 13.6457ZM24.5903 14.4578C24.6504 15.5707 24.6504 18.9094 24.5903 20.0223C24.5301 21.1051 24.2895 22.0375 23.5075 22.8496C22.7254 23.6316 21.7629 23.8723 20.6801 23.9324C19.5672 23.9926 16.2286 23.9926 15.1157 23.9324C14.0329 23.8723 13.1004 23.6316 12.2883 22.8496C11.5063 22.0375 11.2657 21.1051 11.2055 20.0223C11.1454 18.9094 11.1454 15.5707 11.2055 14.4578C11.2657 13.375 11.5063 12.4125 12.2883 11.6305C13.1004 10.8484 14.0329 10.6078 15.1157 10.5477C16.2286 10.4875 19.5672 10.4875 20.6801 10.5477C21.7629 10.6078 22.7254 10.8484 23.5075 11.6305C24.2895 12.4125 24.5301 13.375 24.5903 14.4578ZM23.1465 21.1953C23.5075 20.323 23.4172 18.2176 23.4172 17.225C23.4172 16.2625 23.5075 14.157 23.1465 13.2547C22.9059 12.6832 22.4547 12.202 21.8833 11.9914C20.9809 11.6305 18.8754 11.7207 17.9129 11.7207C16.9204 11.7207 14.8149 11.6305 13.9426 11.9914C13.3411 12.232 12.8899 12.6832 12.6493 13.2547C12.2883 14.157 12.3786 16.2625 12.3786 17.225C12.3786 18.2176 12.2883 20.323 12.6493 21.1953C12.8899 21.7969 13.3411 22.248 13.9426 22.4887C14.8149 22.8496 16.9204 22.7594 17.9129 22.7594C18.8754 22.7594 20.9809 22.8496 21.8833 22.4887C22.4547 22.248 22.936 21.7969 23.1465 21.1953Z" fill="#ED642B"/>
</g>
<defs>
<filter id="filter0_i_104_198" x="0" y="0" width="35" height="35" filterUnits="userSpaceOnUse" color-interpolation-filters="sRGB">
<feFlood flood-opacity="0" result="BackgroundImageFix"/>
<feBlend mode="normal" in="SourceGraphic" in2="BackgroundImageFix" result="shape"/>
<feColorMatrix in="SourceAlpha" type="matrix" values="0 0 0 0 0 0 0 0 0 0 0 0 0 0 0 0 0 0 127 0" result="hardAlpha"/>
<feMorphology radius="2" operator="erode" in="SourceAlpha" result="effect1_innerShadow_104_198"/>
<feOffset/>
<feComposite in2="hardAlpha" operator="arithmetic" k2="-1" k3="1"/>
<feColorMatrix type="matrix" values="0 0 0 0 0.886275 0 0 0 0 0.886275 0 0 0 0 0.886275 0 0 0 1 0"/>
<feBlend mode="normal" in2="shape" result="effect1_innerShadow_104_198"/>
</filter>
</defs>
</svg>
