<svg width="14" height="14" viewBox="0 0 14 14" fill="none" xmlns="http://www.w3.org/2000/svg">
<path d="M6.91294 3.76602C8.80786 3.76602 10.3719 5.33008 10.3719 7.225C10.3719 9.15 8.80786 10.684 6.91294 10.684C4.98794 10.684 3.45395 9.15 3.45395 7.225C3.45395 5.33008 4.98794 3.76602 6.91294 3.76602ZM6.91294 9.48086C8.14614 9.48086 9.13872 8.48828 9.13872 7.225C9.13872 5.9918 8.14614 4.99922 6.91294 4.99922C5.64966 4.99922 4.65708 5.9918 4.65708 7.225C4.65708 8.48828 5.67973 9.48086 6.91294 9.48086ZM11.3043 3.6457C11.3043 4.09688 10.9434 4.45781 10.4922 4.45781C10.0411 4.45781 9.68013 4.09688 9.68013 3.6457C9.68013 3.19453 10.0411 2.83359 10.4922 2.83359C10.9434 2.83359 11.3043 3.19453 11.3043 3.6457ZM13.5903 4.45781C13.6504 5.5707 13.6504 8.90938 13.5903 10.0223C13.5301 11.1051 13.2895 12.0375 12.5075 12.8496C11.7254 13.6316 10.7629 13.8723 9.68013 13.9324C8.56723 13.9926 5.22856 13.9926 4.11567 13.9324C3.03286 13.8723 2.10044 13.6316 1.28833 12.8496C0.506297 12.0375 0.265672 11.1051 0.205516 10.0223C0.14536 8.90938 0.14536 5.5707 0.205516 4.45781C0.265672 3.375 0.506297 2.4125 1.28833 1.63047C2.10044 0.848438 3.03286 0.607813 4.11567 0.547657C5.22856 0.4875 8.56723 0.4875 9.68013 0.547657C10.7629 0.607813 11.7254 0.848438 12.5075 1.63047C13.2895 2.4125 13.5301 3.375 13.5903 4.45781ZM12.1465 11.1953C12.5075 10.323 12.4172 8.21758 12.4172 7.225C12.4172 6.2625 12.5075 4.15703 12.1465 3.25469C11.9059 2.6832 11.4547 2.20195 10.8833 1.99141C9.98091 1.63047 7.87544 1.7207 6.91294 1.7207C5.92036 1.7207 3.81489 1.63047 2.94263 1.99141C2.34106 2.23203 1.88989 2.6832 1.64927 3.25469C1.28833 4.15703 1.37856 6.2625 1.37856 7.225C1.37856 8.21758 1.28833 10.323 1.64927 11.1953C1.88989 11.7969 2.34106 12.248 2.94263 12.4887C3.81489 12.8496 5.92036 12.7594 6.91294 12.7594C7.87544 12.7594 9.98091 12.8496 10.8833 12.4887C11.4547 12.248 11.936 11.7969 12.1465 11.1953Z" fill="#ED642B"/>
</svg>
