<svg width="120" height="121" viewBox="0 0 120 121" fill="none" xmlns="http://www.w3.org/2000/svg">
<path d="M39.9997 93.229C41.5347 94.229 43.4947 94.529 45.3347 93.894L58.0147 89.574C59.3016 89.1351 60.6977 89.1351 61.9847 89.574L74.6647 93.894C76.5047 94.524 78.4647 94.229 79.9997 93.229V112.699L59.9997 105.909L39.9997 112.699V93.229ZM58.3847 81.379L48.0747 84.894C46.9204 85.287 45.6624 85.2448 44.5371 84.7752C43.4119 84.3055 42.497 83.4409 41.9647 82.344L36.9397 72.019C36.478 71.0649 35.7251 70.2823 34.7897 69.784L24.7897 64.484C23.7605 63.9367 22.955 63.0471 22.5122 61.9688C22.0694 60.8906 22.0172 59.6916 22.3647 58.579L25.9147 47.214C26.2176 46.2437 26.2176 45.2042 25.9147 44.234L22.3647 32.869C22.0163 31.7551 22.0686 30.5545 22.5124 29.4751C22.9562 28.3958 23.7636 27.5056 24.7947 26.959L34.7897 21.659C35.7243 21.162 36.4771 20.3812 36.9397 19.429L41.9647 9.08898C42.4979 7.99294 43.4131 7.12942 44.5383 6.66076C45.6634 6.1921 46.921 6.15057 48.0747 6.54398L58.3847 10.059C59.4317 10.4163 60.5676 10.4163 61.6147 10.059L71.9247 6.54398C73.0789 6.15093 74.3369 6.19319 75.4622 6.66281C76.5874 7.13243 77.5023 7.99704 78.0347 9.09398L83.0597 19.424C83.5213 20.378 84.2742 21.1607 85.2097 21.659L95.2097 26.959C96.2388 27.5063 97.0443 28.3959 97.4871 29.4741C97.9299 30.5523 97.9821 31.7514 97.6347 32.864L94.0847 44.229C93.7818 45.1992 93.7818 46.2387 94.0847 47.209L97.6347 58.574C97.983 59.6878 97.9308 60.8884 97.487 61.9678C97.0432 63.0472 96.2358 63.9373 95.2047 64.484L85.2097 69.784C84.275 70.281 83.5222 71.0618 83.0597 72.014L78.0347 82.349C77.5014 83.445 76.5862 84.3085 75.4611 84.7772C74.3359 85.2459 73.0783 85.2874 71.9247 84.894L61.6147 81.379C60.5676 81.0216 59.4317 81.0216 58.3847 81.379ZM59.9997 30.719C58.6736 30.719 57.4018 31.2458 56.4641 32.1834C55.5264 33.1211 54.9997 34.3929 54.9997 35.719V55.719C54.9997 57.0451 55.5264 58.3168 56.4641 59.2545C57.4018 60.1922 58.6736 60.719 59.9997 60.719C61.3257 60.719 62.5975 60.1922 63.5352 59.2545C64.4729 58.3168 64.9997 57.0451 64.9997 55.719V35.719C64.9997 34.3929 64.4729 33.1211 63.5352 32.1834C62.5975 31.2458 61.3257 30.719 59.9997 30.719Z" fill="#ED642B"/>
</svg>
