<svg width="15" height="14" viewBox="0 0 15 14" fill="none" xmlns="http://www.w3.org/2000/svg">
<path d="M13.1875 1.75C13.5521 1.75 13.862 1.8776 14.1172 2.13281C14.3724 2.38802 14.5 2.69792 14.5 3.0625V10.9375C14.5 11.3021 14.3724 11.612 14.1172 11.8672C13.862 12.1224 13.5521 12.25 13.1875 12.25H1.8125C1.44792 12.25 1.13802 12.1224 0.882812 11.8672C0.627604 11.612 0.5 11.3021 0.5 10.9375V3.0625C0.5 2.69792 0.627604 2.38802 0.882812 2.13281C1.13802 1.8776 1.44792 1.75 1.8125 1.75H13.1875ZM13.1875 3.0625H1.8125V4.18359C2.45052 4.69401 3.68099 5.66016 5.50391 7.08203C5.50391 7.10026 5.63151 7.21419 5.88672 7.42383C6.14193 7.63346 6.33333 7.7793 6.46094 7.86133C6.58854 7.94336 6.75716 8.03906 6.9668 8.14844C7.17643 8.25781 7.35417 8.3125 7.5 8.3125C7.64583 8.3125 7.82357 8.25781 8.0332 8.14844C8.24284 8.03906 8.41146 7.94336 8.53906 7.86133C8.66667 7.7793 8.85807 7.63346 9.11328 7.42383C9.36849 7.21419 9.49609 7.10026 9.49609 7.08203C11.319 5.66016 12.5495 4.69401 13.1875 4.18359V3.0625ZM1.8125 10.9375H13.1875V5.85156C12.5495 6.36198 11.5924 7.11849 10.3164 8.12109C10.2799 8.13932 10.1478 8.2487 9.91992 8.44922C9.69206 8.64974 9.51432 8.79557 9.38672 8.88672C9.25911 8.97786 9.07682 9.0918 8.83984 9.22852C8.60286 9.36523 8.375 9.46549 8.15625 9.5293C7.9375 9.5931 7.71875 9.625 7.5 9.625C7.28125 9.625 7.05794 9.5931 6.83008 9.5293C6.60221 9.46549 6.37435 9.36068 6.14648 9.21484C5.91862 9.06901 5.74089 8.95052 5.61328 8.85938C5.48568 8.76823 5.30794 8.62695 5.08008 8.43555C4.85221 8.24414 4.72005 8.13932 4.68359 8.12109C3.40755 7.11849 2.45052 6.36198 1.8125 5.85156V10.9375Z" fill="#ED642B"/>
</svg>
