<svg width="100" height="101" viewBox="0 0 100 101" fill="none" xmlns="http://www.w3.org/2000/svg">
<path d="M50.0003 7.23706C48.0003 7.23706 47.3337 8.57039 46.0003 9.90373L7.33366 73.2371C6.66699 73.9037 6.66699 75.2371 6.66699 75.9037C6.66699 79.2371 9.33366 80.5704 11.3337 80.5704H88.667C91.3337 80.5704 93.3337 79.2371 93.3337 75.9037C93.3337 74.5704 93.3337 74.5704 92.667 73.2371L54.667 9.90373C53.3337 8.57039 52.0003 7.23706 50.0003 7.23706ZM50.0003 17.2371L72.0003 53.9037H66.667L56.667 43.9037L50.0003 53.9037L43.3337 43.9037L33.3337 53.9037H27.3337L50.0003 17.2371Z" fill="#FCEEE6"/>
</svg>
