<svg width="130" height="131" viewBox="0 0 130 131" fill="none" xmlns="http://www.w3.org/2000/svg">
<path d="M58.3643 57.0519L24.5102 42.4269C22.3435 41.4339 21.0128 39.8305 20.5181 37.6169C20.0234 35.4033 20.6318 33.4407 22.3435 31.729L24.5102 29.5623C25.2324 28.8401 26.1135 28.2984 27.1535 27.9373C28.1935 27.5762 29.2534 27.4859 30.3331 27.6665L79.0831 36.3332L95.8748 19.4061C97.9511 17.3297 100.502 16.2915 103.529 16.2915C106.555 16.2915 109.104 17.3297 111.177 19.4061C113.25 21.4825 114.288 24.0337 114.291 27.0598C114.295 30.0859 113.257 32.6354 111.177 34.7082L94.3852 51.6353L102.916 100.25C103.097 101.333 103.028 102.417 102.711 103.5C102.393 104.583 101.875 105.486 101.156 106.208L98.9893 108.239C97.2741 109.955 95.2879 110.587 93.031 110.135C90.7741 109.684 89.1491 108.375 88.156 106.208L73.6664 72.354L59.8539 86.0311L62.8331 102.823C63.0136 103.726 62.9685 104.607 62.6977 105.466C62.4268 106.326 61.9754 107.069 61.3435 107.698L59.0414 110C57.7775 111.264 56.2211 111.76 54.3723 111.489C52.5234 111.219 51.1457 110.271 50.2393 108.646L40.3539 90.3644L22.0727 80.479C20.4477 79.5762 19.4998 78.2004 19.2289 76.3515C18.9581 74.5026 19.4546 72.9444 20.7185 71.6769L23.0206 69.3748C23.6525 68.7429 24.3982 68.2915 25.2577 68.0207C26.1171 67.7498 26.9964 67.7047 27.8956 67.8853L44.5518 70.729L58.3643 57.0519Z" fill="#ED642B"/>
</svg>
