<svg width="120" height="121" viewBox="0 0 120 121" fill="none" xmlns="http://www.w3.org/2000/svg">
<path d="M73.77 50.7188C78.6 50.7188 82.52 54.6387 82.52 59.4688V83.2138C82.52 89.1824 80.1489 94.9067 75.9284 99.1272C71.7079 103.348 65.9837 105.719 60.015 105.719C54.0463 105.719 48.3221 103.348 44.1016 99.1272C39.8811 94.9067 37.51 89.1824 37.51 83.2138V59.4688C37.51 54.6387 41.425 50.7188 46.26 50.7188H73.77ZM35.655 50.7188C33.8483 52.8826 32.7643 55.5576 32.555 58.3687L32.505 59.4688V83.2138C32.505 87.4488 33.465 91.4587 35.175 95.0387C33.5217 95.4888 31.7967 95.7154 30 95.7188C27.3731 95.7188 24.772 95.2013 22.3452 94.1959C19.9183 93.1905 17.7133 91.7168 15.8561 89.8591C13.9989 88.0014 12.5258 85.796 11.521 83.369C10.5162 80.9419 9.99934 78.3406 10 75.7137V59.4688C10.0001 57.2728 10.8259 55.1572 12.3134 53.5418C13.8009 51.9264 15.8415 50.9294 18.03 50.7487L18.75 50.7188H35.655ZM84.375 50.7188H101.25C106.08 50.7188 110 54.6387 110 59.4688V75.7188C110.001 78.7846 109.297 81.8095 107.942 84.5599C106.587 87.3102 104.619 89.7123 102.188 91.5806C99.757 93.4489 96.9292 94.7333 93.923 95.3347C90.9167 95.936 87.8124 95.8382 84.85 95.0487C86.35 91.9087 87.27 88.4487 87.475 84.7887L87.52 83.2138V59.4688C87.52 56.1437 86.345 53.0938 84.375 50.7188ZM60 15.7188C63.9782 15.7188 67.7936 17.2991 70.6066 20.1121C73.4197 22.9252 75 26.7405 75 30.7188C75 34.697 73.4197 38.5123 70.6066 41.3254C67.7936 44.1384 63.9782 45.7188 60 45.7188C56.0218 45.7188 52.2064 44.1384 49.3934 41.3254C46.5803 38.5123 45 34.697 45 30.7188C45 26.7405 46.5803 22.9252 49.3934 20.1121C52.2064 17.2991 56.0218 15.7188 60 15.7188ZM92.5 20.7188C95.8152 20.7188 98.9946 22.0357 101.339 24.3799C103.683 26.7241 105 29.9035 105 33.2188C105 36.534 103.683 39.7134 101.339 42.0576C98.9946 44.4018 95.8152 45.7188 92.5 45.7188C89.1848 45.7188 86.0054 44.4018 83.6612 42.0576C81.317 39.7134 80 36.534 80 33.2188C80 29.9035 81.317 26.7241 83.6612 24.3799C86.0054 22.0357 89.1848 20.7188 92.5 20.7188ZM27.5 20.7188C30.8152 20.7188 33.9946 22.0357 36.3388 24.3799C38.683 26.7241 40 29.9035 40 33.2188C40 36.534 38.683 39.7134 36.3388 42.0576C33.9946 44.4018 30.8152 45.7188 27.5 45.7188C24.1848 45.7188 21.0054 44.4018 18.6612 42.0576C16.317 39.7134 15 36.534 15 33.2188C15 29.9035 16.317 26.7241 18.6612 24.3799C21.0054 22.0357 24.1848 20.7188 27.5 20.7188Z" fill="#ED642B"/>
</svg>
