<svg width="13" height="13" viewBox="0 0 13 13" fill="none" xmlns="http://www.w3.org/2000/svg">
<path d="M11.7641 7.95312C12.1742 8.47266 12.4203 9.12891 12.393 9.8125C12.393 11.5078 11.0258 12.875 9.33047 12.875C8.64687 12.875 7.99062 12.6562 7.47109 12.2461C7.08828 12.3281 6.67812 12.3828 6.26797 12.3828C3.17812 12.3828 0.6625 9.86719 0.6625 6.75C0.6625 6.36719 0.717187 5.95703 0.799219 5.57422C0.389062 5.05469 0.170312 4.39844 0.170312 3.6875C0.170312 2.01953 1.5375 0.625 3.23281 0.625C3.91641 0.625 4.57266 0.871094 5.09219 1.28125C5.475 1.19922 5.88516 1.14453 6.29531 1.14453C9.38516 1.14453 11.9008 3.66016 11.9008 6.75C11.9008 7.16016 11.8461 7.57031 11.7641 7.95312ZM6.45937 10.4688C7.96328 10.4688 9.52187 9.70312 9.52187 8.08984C9.52187 6.69531 8.15469 6.23047 7.03359 5.98438C5.72109 5.65625 5.14687 5.60156 5.14687 5.08203C5.14687 4.64453 5.58437 4.45312 6.29531 4.45312C7.55312 4.45312 7.58047 5.38281 8.34609 5.38281C8.86562 5.38281 9.16641 4.97266 9.16641 4.50781C9.16641 3.57812 7.63516 2.97656 6.13125 2.97656C4.76406 2.97656 3.15078 3.57812 3.15078 5.21875C3.15078 6.99609 4.68203 7.16016 6.37734 7.59766C7.08828 7.76172 7.52578 7.84375 7.52578 8.36328C7.52578 8.77344 7.06094 9.07422 6.37734 9.07422C4.90078 9.07422 4.81875 7.84375 3.97109 7.84375C3.39687 7.84375 3.15078 8.25391 3.15078 8.69141C3.15078 9.67578 4.65469 10.4688 6.45937 10.4688Z" fill="#ED642B"/>
</svg>
