<svg width="100" height="101" viewBox="0 0 100 101" fill="none" xmlns="http://www.w3.org/2000/svg">
<path d="M50 9.94543C41.9652 9.94543 34.1107 12.328 27.43 16.792C20.7492 21.2559 15.5422 27.6007 12.4674 35.0239C9.3926 42.4472 8.58809 50.6155 10.1556 58.496C11.7231 66.3765 15.5923 73.6151 21.2738 79.2966C26.9553 84.9782 34.194 88.8473 42.0745 90.4148C49.955 91.9824 58.1233 91.1778 65.5465 88.103C72.9698 85.0282 79.3145 79.8212 83.7785 73.1405C88.2424 66.4597 90.625 58.6053 90.625 50.5704C90.6136 39.7995 86.3299 29.473 78.7137 21.8568C71.0975 14.2406 60.7709 9.95681 50 9.94543ZM35.9375 38.0704C36.8646 38.0704 37.7709 38.3454 38.5418 38.8604C39.3126 39.3755 39.9134 40.1076 40.2682 40.9641C40.623 41.8206 40.7158 42.7631 40.535 43.6724C40.3541 44.5817 39.9076 45.4169 39.2521 46.0725C38.5965 46.7281 37.7613 47.1745 36.852 47.3554C35.9427 47.5362 35.0002 47.4434 34.1437 47.0886C33.2872 46.7338 32.5551 46.133 32.04 45.3622C31.5249 44.5913 31.25 43.685 31.25 42.7579C31.25 41.5147 31.7439 40.3224 32.623 39.4434C33.502 38.5643 34.6943 38.0704 35.9375 38.0704ZM68.3281 61.5079C64.3086 68.4572 57.6289 72.4454 50 72.4454C42.3711 72.4454 35.6914 68.4611 31.6719 61.5079C31.4458 61.1523 31.294 60.7545 31.2256 60.3386C31.1572 59.9228 31.1736 59.4973 31.2739 59.088C31.3741 58.6786 31.5562 58.2938 31.809 57.9566C32.0619 57.6194 32.3804 57.3368 32.7452 57.1259C33.1101 56.915 33.5139 56.7801 33.9323 56.7293C34.3507 56.6784 34.775 56.7128 35.1798 56.8302C35.5846 56.9476 35.9614 57.1457 36.2877 57.4126C36.6139 57.6794 36.8828 58.0095 37.0781 58.3829C39.9961 63.4259 44.5821 66.1954 50 66.1954C55.418 66.1954 60.0039 63.422 62.9219 58.3829C63.1173 58.0095 63.3861 57.6794 63.7124 57.4126C64.0386 57.1457 64.4154 56.9476 64.8202 56.8302C65.225 56.7128 65.6493 56.6784 66.0677 56.7293C66.4861 56.7801 66.8899 56.915 67.2548 57.1259C67.6197 57.3368 67.9381 57.6194 68.191 57.9566C68.4439 58.2938 68.6259 58.6786 68.7262 59.088C68.8264 59.4973 68.8429 59.9228 68.7745 60.3386C68.7061 60.7545 68.5542 61.1523 68.3281 61.5079ZM64.0625 47.4454C63.1354 47.4454 62.2291 47.1705 61.4583 46.6554C60.6874 46.1404 60.0866 45.4083 59.7318 44.5518C59.377 43.6952 59.2842 42.7527 59.4651 41.8434C59.646 40.9342 60.0924 40.0989 60.748 39.4434C61.4035 38.7878 62.2387 38.3414 63.148 38.1605C64.0573 37.9796 64.9998 38.0725 65.8563 38.4272C66.7129 38.782 67.445 39.3828 67.96 40.1537C68.4751 40.9246 68.75 41.8308 68.75 42.7579C68.75 44.0011 68.2562 45.1934 67.3771 46.0725C66.498 46.9516 65.3057 47.4454 64.0625 47.4454Z" fill="#FCEEE6"/>
</svg>
