<svg width="181" height="39" viewBox="0 0 181 39" fill="none" xmlns="http://www.w3.org/2000/svg">
<rect x="1.5" y="6" width="27" height="27" fill="#00B678"/>
<rect x="1.5" y="6" width="27" height="27" stroke="#00B678" stroke-width="3"/>
<path d="M21.5337 25.3376L24.2712 33.7651L15.005 27.0301L21.5337 25.3376ZM30 16.1376H18.5438L15.0063 5.23633L11.4563 16.1401L0 16.1251L9.2775 22.8713L5.7275 33.7638L15.005 27.0301L20.7337 22.8713L30 16.1376Z" fill="white"/>
<rect x="37.5" y="6" width="27" height="27" fill="#00B678"/>
<rect x="37.5" y="6" width="27" height="27" stroke="#00B678" stroke-width="3"/>
<path d="M57.5337 25.3376L60.2712 33.7651L51.005 27.0301L57.5337 25.3376ZM66 16.1376H54.5438L51.0063 5.23633L47.4563 16.1401L36 16.1251L45.2775 22.8713L41.7275 33.7638L51.005 27.0301L56.7337 22.8713L66 16.1376Z" fill="white"/>
<rect x="73.5" y="6" width="27" height="27" fill="#00B678"/>
<rect x="73.5" y="6" width="27" height="27" stroke="#00B678" stroke-width="3"/>
<path d="M93.5337 25.3376L96.2712 33.7651L87.005 27.0301L93.5337 25.3376ZM102 16.1376H90.5438L87.0063 5.23633L83.4563 16.1401L72 16.1251L81.2775 22.8713L77.7275 33.7638L87.005 27.0301L92.7337 22.8713L102 16.1376Z" fill="white"/>
<rect x="109.5" y="6" width="27" height="27" fill="#00B678"/>
<rect x="109.5" y="6" width="27" height="27" stroke="#00B678" stroke-width="3"/>
<path d="M129.534 25.3376L132.271 33.7651L123.005 27.0301L129.534 25.3376ZM138 16.1376H126.544L123.006 5.23633L119.456 16.1401L108 16.1251L117.278 22.8713L113.727 33.7638L123.005 27.0301L128.734 22.8713L138 16.1376Z" fill="white"/>
<rect x="145.5" y="6" width="27" height="27" fill="#00B678"/>
<rect x="145.5" y="6" width="27" height="27" stroke="#00B678" stroke-width="3"/>
<path d="M165.534 25.3376L168.271 33.7651L159.005 27.0301L165.534 25.3376ZM174 16.1376H162.544L159.006 5.23633L155.456 16.1401L144 16.1251L153.278 22.8713L149.727 33.7638L159.005 27.0301L164.734 22.8713L174 16.1376Z" fill="white"/>
</svg>
