<svg width="110" height="111" viewBox="0 0 110 111" fill="none" xmlns="http://www.w3.org/2000/svg">
<path d="M55.0001 87.6537C56.2157 87.6537 57.3815 88.1366 58.241 88.9962C59.1006 89.8557 59.5835 91.0215 59.5835 92.2371V96.8204C59.5835 98.036 59.1006 99.2018 58.241 100.061C57.3815 100.921 56.2157 101.404 55.0001 101.404C53.7845 101.404 52.6188 100.921 51.7592 100.061C50.8997 99.2018 50.4168 98.036 50.4168 96.8204V92.2371C50.4168 91.0215 50.8997 89.8557 51.7592 88.9962C52.6188 88.1366 53.7845 87.6537 55.0001 87.6537ZM84.1685 78.2579L87.4089 81.4983C88.2438 82.3627 88.7057 83.5205 88.6953 84.7222C88.6849 85.924 88.2028 87.0735 87.353 87.9233C86.5033 88.7731 85.3537 89.2551 84.152 89.2656C82.9502 89.276 81.7925 88.814 80.928 87.9791L77.6876 84.7387C76.8527 83.8743 76.3908 82.7165 76.4012 81.5148C76.4117 80.3131 76.8937 79.1635 77.7435 78.3137C78.5932 77.4639 79.7428 76.9819 80.9445 76.9715C82.1463 76.961 83.304 77.423 84.1685 78.2579ZM25.8318 78.2579C26.6566 77.4359 27.7634 76.9586 28.9273 76.9231C30.0912 76.8876 31.2251 77.2964 32.0985 78.0665C32.9719 78.8367 33.5194 79.9104 33.6299 81.0697C33.7403 82.2289 33.4053 83.3867 32.693 84.3079L32.3126 84.7387L29.0722 87.9791C28.2474 88.8012 27.1406 89.2784 25.9767 89.3139C24.8128 89.3495 23.6789 88.9407 22.8055 88.1705C21.9321 87.4004 21.3846 86.3266 21.2741 85.1674C21.1637 84.0082 21.4987 82.8504 22.211 81.9291L22.5914 81.4983L25.8318 78.2579ZM55.0001 28.0704C62.2936 28.0704 69.2883 30.9677 74.4456 36.125C79.6028 41.2822 82.5001 48.2769 82.5001 55.5704C82.5001 62.8638 79.6028 69.8586 74.4456 75.0158C69.2883 80.1731 62.2936 83.0704 55.0001 83.0704C47.7067 83.0704 40.7119 80.1731 35.5547 75.0158C30.3974 69.8586 27.5001 62.8638 27.5001 55.5704C27.5001 48.2769 30.3974 41.2822 35.5547 36.125C40.7119 30.9677 47.7067 28.0704 55.0001 28.0704ZM18.3335 50.9871C19.5017 50.9884 20.6253 51.4357 21.4747 52.2376C22.3242 53.0396 22.8354 54.1356 22.9038 55.3018C22.9723 56.468 22.5929 57.6163 21.8431 58.5121C21.0933 59.408 20.0297 59.9837 18.8697 60.1216L18.3335 60.1537H13.7501C12.5819 60.1524 11.4583 59.7051 10.6089 58.9032C9.7594 58.1012 9.24822 57.0052 9.17976 55.839C9.1113 54.6728 9.49072 53.5245 10.2405 52.6287C10.9903 51.7328 12.0539 51.1571 13.2139 51.0191L13.7501 50.9871H18.3335ZM96.2501 50.9871C97.4657 50.9871 98.6315 51.4699 99.491 52.3295C100.351 53.189 100.833 54.3548 100.833 55.5704C100.833 56.786 100.351 57.9518 99.491 58.8113C98.6315 59.6708 97.4657 60.1537 96.2501 60.1537H91.6668C90.4512 60.1537 89.2854 59.6708 88.4259 58.8113C87.5663 57.9518 87.0835 56.786 87.0835 55.5704C87.0835 54.3548 87.5663 53.189 88.4259 52.3295C89.2854 51.4699 90.4512 50.9871 91.6668 50.9871H96.2501ZM22.5914 23.1616C23.3806 22.3725 24.4306 21.8984 25.5445 21.8284C26.6584 21.7584 27.7595 22.0972 28.6414 22.7812L29.0722 23.1616L32.3126 26.4021C33.1346 27.2269 33.6119 28.3336 33.6474 29.4976C33.683 30.6615 33.2741 31.7953 32.504 32.6688C31.7338 33.5422 30.6601 34.0897 29.5009 34.2001C28.3416 34.3106 27.1838 33.9756 26.2626 33.2633L25.8318 32.8829L22.5914 29.6425C21.7321 28.783 21.2494 27.6174 21.2494 26.4021C21.2494 25.1867 21.7321 24.0211 22.5914 23.1616ZM87.4089 23.1616C88.2681 24.0211 88.7508 25.1867 88.7508 26.4021C88.7508 27.6174 88.2681 28.783 87.4089 29.6425L84.1685 32.8829C83.7457 33.3207 83.2399 33.6698 82.6807 33.91C82.1215 34.1502 81.5201 34.2767 80.9115 34.282C80.303 34.2872 79.6994 34.1713 79.1362 33.9408C78.5729 33.7104 78.0612 33.37 77.6308 32.9397C77.2005 32.5094 76.8602 31.9976 76.6297 31.4344C76.3992 30.8711 76.2833 30.2675 76.2886 29.659C76.2938 29.0504 76.4203 28.449 76.6605 27.8898C76.9007 27.3306 77.2499 26.8249 77.6876 26.4021L80.928 23.1616C81.7875 22.3024 82.9531 21.8197 84.1685 21.8197C85.3838 21.8197 86.5494 22.3024 87.4089 23.1616ZM55.0001 9.73706C56.2157 9.73706 57.3815 10.2199 58.241 11.0795C59.1006 11.939 59.5835 13.1048 59.5835 14.3204V18.9037C59.5835 20.1193 59.1006 21.2851 58.241 22.1446C57.3815 23.0042 56.2157 23.4871 55.0001 23.4871C53.7845 23.4871 52.6188 23.0042 51.7592 22.1446C50.8997 21.2851 50.4168 20.1193 50.4168 18.9037V14.3204C50.4168 13.1048 50.8997 11.939 51.7592 11.0795C52.6188 10.2199 53.7845 9.73706 55.0001 9.73706Z" fill="#FCEEE6"/>
</svg>
