<svg width="100" height="101" viewBox="0 0 100 101" fill="none" xmlns="http://www.w3.org/2000/svg">
<path d="M50 13.0829C48.3601 13.0829 46.7363 13.4059 45.2212 14.0334C43.7062 14.661 42.3296 15.5808 41.17 16.7404C40.0104 17.9 39.0906 19.2766 38.4631 20.7916C37.8355 22.3067 37.5125 23.9305 37.5125 25.5704C37.5125 27.2103 37.8355 28.8341 38.4631 30.3491C39.0906 31.8642 40.0104 33.2408 41.17 34.4004C42.3296 35.56 43.7062 36.4798 45.2212 37.1073C46.7363 37.7349 48.3601 38.0579 50 38.0579C53.3119 38.0579 56.4881 36.7422 58.83 34.4004C61.1719 32.0585 62.4875 28.8823 62.4875 25.5704C62.4875 22.2585 61.1719 19.0822 58.83 16.7404C56.4881 14.3985 53.3119 13.0829 50 13.0829ZM78.125 19.3204C75.6386 19.3204 73.254 20.3081 71.4959 22.0663C69.7377 23.8244 68.75 26.209 68.75 28.6954C68.75 31.1818 69.7377 33.5664 71.4959 35.3245C73.254 37.0827 75.6386 38.0704 78.125 38.0704C80.6114 38.0704 82.996 37.0827 84.7541 35.3245C86.5123 33.5664 87.5 31.1818 87.5 28.6954C87.5 26.209 86.5123 23.8244 84.7541 22.0663C82.996 20.3081 80.6114 19.3204 78.125 19.3204ZM21.875 19.3204C19.3886 19.3204 17.004 20.3081 15.2459 22.0663C13.4877 23.8244 12.5 26.209 12.5 28.6954C12.5 31.1818 13.4877 33.5664 15.2459 35.3245C17.004 37.0827 19.3886 38.0704 21.875 38.0704C24.3614 38.0704 26.746 37.0827 28.5041 35.3245C30.2623 33.5664 31.25 31.1818 31.25 28.6954C31.25 26.209 30.2623 23.8244 28.5041 22.0663C26.746 20.3081 24.3614 19.3204 21.875 19.3204ZM31.25 50.5266C31.2616 48.8766 31.9251 47.2981 33.096 46.1355C34.2668 44.9728 35.8499 44.3203 37.5 44.3204H62.5C64.1576 44.3204 65.7473 44.9789 66.9194 46.151C68.0915 47.3231 68.75 48.9128 68.75 50.5704V69.3204C68.7516 71.2875 68.4437 73.2427 67.8375 75.1141C66.4536 79.356 63.6028 82.9656 59.797 85.2947C55.9912 87.6239 51.4797 88.52 47.0727 87.8221C42.6656 87.1242 38.6518 84.8781 35.7518 81.4871C32.8518 78.0961 31.2556 73.7823 31.25 69.3204V50.5266ZM25 50.5704C25 48.2891 25.6063 46.1579 26.675 44.3204H12.5C10.8424 44.3204 9.25269 44.9789 8.08058 46.151C6.90848 47.3231 6.25 48.9128 6.25 50.5704V66.1954C6.24915 68.7535 6.87641 71.2728 8.07671 73.5319C9.277 75.791 11.0136 77.7208 13.134 79.1519C15.2544 80.583 17.6938 81.4715 20.2379 81.7396C22.7819 82.0076 25.3529 81.6469 27.725 80.6891C25.93 77.1663 24.9961 73.2679 25 69.3141V50.5704ZM75 50.5704V69.3204C75 73.4141 74.0188 77.2766 72.275 80.6891C74.6471 81.6469 77.2181 82.0076 79.7621 81.7396C82.3062 81.4715 84.7456 80.583 86.866 79.1519C88.9864 77.7208 90.723 75.791 91.9233 73.5319C93.1236 71.2728 93.7509 68.7535 93.75 66.1954V50.5704C93.75 48.9128 93.0915 47.3231 91.9194 46.151C90.7473 44.9789 89.1576 44.3204 87.5 44.3204H73.325C74.3875 46.1579 75 48.2891 75 50.5704Z" fill="#FCEEE6"/>
</svg>
