<svg width="14" height="16" viewBox="0 0 14 16" fill="none" xmlns="http://www.w3.org/2000/svg">
<g filter="url(#filter0_dd_104_203)">
<path d="M13.4203 6.49219H13.393C12.1352 6.49219 10.9867 6.10938 10.057 5.42578V10.3203C10.057 12.7812 8.06094 14.75 5.6 14.75C3.13906 14.75 1.17031 12.7812 1.17031 10.3203C1.17031 7.85938 3.13906 5.86328 5.6 5.86328C5.81875 5.86328 6.01016 5.89062 6.22891 5.91797V8.37891C6.01016 8.29688 5.81875 8.26953 5.6 8.26953C4.47891 8.26953 3.54922 9.19922 3.54922 10.3203C3.54922 11.4414 4.47891 12.3711 5.6 12.3711C6.72109 12.3711 7.65078 11.4414 7.65078 10.3203V0.75H10.057C10.057 0.777344 10.057 0.777344 10.057 0.804688C10.057 0.996094 10.057 1.1875 10.1117 1.37891C10.2758 2.28125 10.8227 3.07422 11.5883 3.56641C12.1078 3.92188 12.7367 4.11328 13.393 4.11328C13.393 4.11328 13.393 4.11328 13.4203 4.11328V6.49219Z" fill="#ED642B"/>
</g>
<defs>
<filter id="filter0_dd_104_203" x="0.609922" y="0.19" width="13.37" height="15.12" filterUnits="userSpaceOnUse" color-interpolation-filters="sRGB">
<feFlood flood-opacity="0" result="BackgroundImageFix"/>
<feColorMatrix in="SourceAlpha" type="matrix" values="0 0 0 0 0 0 0 0 0 0 0 0 0 0 0 0 0 0 127 0" result="hardAlpha"/>
<feOffset dx="-0.56" dy="-0.56"/>
<feComposite in2="hardAlpha" operator="out"/>
<feColorMatrix type="matrix" values="0 0 0 0 0.411765 0 0 0 0 0.788235 0 0 0 0 0.815686 0 0 0 1 0"/>
<feBlend mode="normal" in2="BackgroundImageFix" result="effect1_dropShadow_104_203"/>
<feColorMatrix in="SourceAlpha" type="matrix" values="0 0 0 0 0 0 0 0 0 0 0 0 0 0 0 0 0 0 127 0" result="hardAlpha"/>
<feOffset dx="0.56" dy="0.56"/>
<feComposite in2="hardAlpha" operator="out"/>
<feColorMatrix type="matrix" values="0 0 0 0 0.933333 0 0 0 0 0.113725 0 0 0 0 0.321569 0 0 0 1 0"/>
<feBlend mode="normal" in2="effect1_dropShadow_104_203" result="effect2_dropShadow_104_203"/>
<feBlend mode="normal" in="SourceGraphic" in2="effect2_dropShadow_104_203" result="shape"/>
</filter>
</defs>
</svg>
