<svg width="100" height="101" viewBox="0 0 100 101" fill="none" xmlns="http://www.w3.org/2000/svg">
<path d="M83.333 71.4038C85.7218 71.4038 87.7357 72.2371 89.3746 73.9038C91.0135 75.5705 91.8191 77.5149 91.7913 79.7371L58.3329 92.2372L29.1663 83.9038V46.4038H37.2913L67.5829 57.6121C69.7496 58.4733 70.833 60.0288 70.833 62.2788C70.833 63.5844 70.3607 64.7233 69.4163 65.6955C68.4718 66.6677 67.2774 67.1816 65.8329 67.2371H54.1663L46.8746 64.4455L45.4996 68.3621L54.1663 71.4038H83.333ZM66.6663 14.0288C69.6107 10.6121 73.3607 8.90381 77.9163 8.90381C81.6941 8.90381 84.8885 10.2927 87.4996 13.0705C90.1107 15.8483 91.4996 19.0427 91.6663 22.6538C91.6663 25.5149 90.2774 28.9316 87.4996 32.9038C84.7218 36.876 81.9857 40.1955 79.2913 42.8621C76.5968 45.5288 72.3885 49.4871 66.6663 54.7371C60.8885 49.4871 56.6385 45.5288 53.9163 42.8621C51.1941 40.1955 48.4579 36.876 45.7079 32.9038C42.9579 28.9316 41.6107 25.5149 41.6663 22.6538C41.6663 18.876 43.0135 15.6816 45.7079 13.0705C48.4024 10.4594 51.6524 9.07048 55.4579 8.90381C59.9024 8.90381 63.6385 10.6121 66.6663 14.0288ZM4.09961 46.4038H20.8329V92.2372H4.09961V46.4038Z" fill="#FCEEE6"/>
</svg>
