<svg width="36" height="35" viewBox="0 0 36 35" fill="none" xmlns="http://www.w3.org/2000/svg">
<g filter="url(#filter0_i_104_200)">
<rect x="0.59082" width="35" height="35" rx="17.5" fill="white" fill-opacity="0.01"/>
<path d="M25.2039 14.168C25.532 15.3164 25.532 17.7773 25.532 17.7773C25.532 17.7773 25.532 20.2109 25.2039 21.3867C25.0398 22.043 24.5203 22.5352 23.8914 22.6992C22.7156 23 18.0672 23 18.0672 23C18.0672 23 13.3914 23 12.2156 22.6992C11.5867 22.5352 11.0672 22.043 10.9031 21.3867C10.575 20.2109 10.575 17.7773 10.575 17.7773C10.575 17.7773 10.575 15.3164 10.9031 14.168C11.0672 13.5117 11.5867 12.9922 12.2156 12.8281C13.3914 12.5 18.0672 12.5 18.0672 12.5C18.0672 12.5 22.7156 12.5 23.8914 12.8281C24.5203 12.9922 25.0398 13.5117 25.2039 14.168ZM16.5359 19.9922L20.4187 17.7773L16.5359 15.5625V19.9922Z" fill="#ED642B"/>
</g>
<defs>
<filter id="filter0_i_104_200" x="0.59082" y="0" width="35" height="35" filterUnits="userSpaceOnUse" color-interpolation-filters="sRGB">
<feFlood flood-opacity="0" result="BackgroundImageFix"/>
<feBlend mode="normal" in="SourceGraphic" in2="BackgroundImageFix" result="shape"/>
<feColorMatrix in="SourceAlpha" type="matrix" values="0 0 0 0 0 0 0 0 0 0 0 0 0 0 0 0 0 0 127 0" result="hardAlpha"/>
<feMorphology radius="2" operator="erode" in="SourceAlpha" result="effect1_innerShadow_104_200"/>
<feOffset/>
<feComposite in2="hardAlpha" operator="arithmetic" k2="-1" k3="1"/>
<feColorMatrix type="matrix" values="0 0 0 0 0.886275 0 0 0 0 0.886275 0 0 0 0 0.886275 0 0 0 1 0"/>
<feBlend mode="normal" in2="shape" result="effect1_innerShadow_104_200"/>
</filter>
</defs>
</svg>
