<svg width="16" height="11" viewBox="0 0 16 11" fill="none" xmlns="http://www.w3.org/2000/svg">
<path d="M15.2039 2.16797C15.532 3.31641 15.532 5.77734 15.532 5.77734C15.532 5.77734 15.532 8.21094 15.2039 9.38672C15.0398 10.043 14.5203 10.5352 13.8914 10.6992C12.7156 11 8.06719 11 8.06719 11C8.06719 11 3.39141 11 2.21562 10.6992C1.58672 10.5352 1.06719 10.043 0.903125 9.38672C0.575 8.21094 0.575 5.77734 0.575 5.77734C0.575 5.77734 0.575 3.31641 0.903125 2.16797C1.06719 1.51172 1.58672 0.992188 2.21562 0.828125C3.39141 0.5 8.06719 0.5 8.06719 0.5C8.06719 0.5 12.7156 0.5 13.8914 0.828125C14.5203 0.992188 15.0398 1.51172 15.2039 2.16797ZM6.53594 7.99219L10.4187 5.77734L6.53594 3.5625V7.99219Z" fill="#ED642B"/>
</svg>
